<svg width="40" height="40" viewBox="0 0 40 40" fill="none" xmlns="http://www.w3.org/2000/svg">
<path d="M26.6667 37.9167H4.99999C3.39999 37.9167 2.08333 36.6 2.08333 35V13.3333C2.08333 5.96667 5.96666 2.08333 13.3333 2.08333H26.6667C34.0333 2.08333 37.9167 5.96667 37.9167 13.3333V26.6667C37.9167 34.0333 34.0333 37.9167 26.6667 37.9167ZM13.3333 4.58333C7.36666 4.58333 4.58333 7.36667 4.58333 13.3333V35C4.58333 35.2333 4.76666 35.4167 4.99999 35.4167H26.6667C32.6333 35.4167 35.4167 32.6333 35.4167 26.6667V13.3333C35.4167 7.36667 32.6333 4.58333 26.6667 4.58333H13.3333Z" fill="#07196B"/>
<path d="M28.3333 17.0833H11.6667C10.9833 17.0833 10.4167 16.5167 10.4167 15.8333C10.4167 15.15 10.9833 14.5833 11.6667 14.5833H28.3333C29.0167 14.5833 29.5833 15.15 29.5833 15.8333C29.5833 16.5167 29.0167 17.0833 28.3333 17.0833Z" fill="#07196B"/>
<path d="M23.3333 25.4167H11.6667C10.9833 25.4167 10.4167 24.85 10.4167 24.1667C10.4167 23.4833 10.9833 22.9167 11.6667 22.9167H23.3333C24.0167 22.9167 24.5833 23.4833 24.5833 24.1667C24.5833 24.85 24.0167 25.4167 23.3333 25.4167Z" fill="#07196B"/>
</svg>
