<svg width="215" height="30" viewBox="0 0 215 30" fill="none" xmlns="http://www.w3.org/2000/svg">
<path d="M2.98023e-08 27.16V3.16C2.98023e-08 2.49333 0.16 1.97333 0.48 1.6C0.826667 1.2 1.26667 0.999998 1.8 0.999998H8.48C12.72 0.999998 15.9333 2.06667 18.12 4.2C20.3333 6.33333 21.44 9.69333 21.44 14.28C21.44 24.0933 17.2533 29 8.88 29H2.04C0.68 29 2.98023e-08 28.3867 2.98023e-08 27.16ZM7.68 8.6V20.56C7.68 21.12 7.72 21.48 7.8 21.64C7.88 21.7733 8.12 21.84 8.52 21.84C9.98667 21.84 11.0933 21.2933 11.84 20.2C12.6133 19.1067 13 17.2933 13 14.76C13 12.2 12.6 10.5333 11.8 9.76C11.0267 8.98666 9.78667 8.6 8.08 8.6H7.68ZM27.2884 22.12V7.88H24.4484C23.9951 7.88 23.6751 7.30667 23.4884 6.16C23.4084 5.6 23.3684 5.02667 23.3684 4.44C23.3684 3.85333 23.4084 3.28 23.4884 2.72C23.6751 1.57333 23.9951 0.999998 24.4484 0.999998H37.8884C38.3418 0.999998 38.6484 1.57333 38.8084 2.72C38.9151 3.28 38.9684 3.85333 38.9684 4.44C38.9684 5.02667 38.9151 5.6 38.8084 6.16C38.6484 7.30667 38.3418 7.88 37.8884 7.88H35.2084V22.12H38.0084C38.4618 22.12 38.7818 22.6933 38.9684 23.84C39.0751 24.4 39.1284 24.9733 39.1284 25.56C39.1284 26.1467 39.0751 26.72 38.9684 27.28C38.7818 28.4267 38.4618 29 38.0084 29H24.5284C24.0751 29 23.7684 28.4267 23.6084 27.28C23.5018 26.72 23.4484 26.1467 23.4484 25.56C23.4484 24.9733 23.5018 24.4 23.6084 23.84C23.7684 22.6933 24.0751 22.12 24.5284 22.12H27.2884ZM60.5969 29.08C58.2769 29.08 57.0235 28.7067 56.8369 27.96L55.5169 22.8H49.1569L47.9969 27.76C47.8369 28.5867 46.5569 29 44.1569 29C42.8769 29 41.9302 28.9333 41.3169 28.8C40.7035 28.64 40.3969 28.52 40.3969 28.44L47.4769 1.36C47.4769 1.14666 49.3035 1.04 52.9569 1.04C56.6102 1.04 58.4369 1.14666 58.4369 1.36L65.3569 28.48C65.3569 28.6667 64.7435 28.8133 63.5169 28.92C62.2902 29.0267 61.3169 29.08 60.5969 29.08ZM50.1569 17.72H54.3569L52.5569 9.44H52.3169L50.1569 17.72ZM67.6078 26.64V1.76C67.6078 1.2 68.9545 0.919999 71.6478 0.919999C74.3678 0.919999 75.7278 1.2 75.7278 1.76V21.36H81.8878C82.3678 21.36 82.7011 21.9867 82.8878 23.24C82.9678 23.8533 83.0078 24.48 83.0078 25.12C83.0078 25.76 82.9678 26.4133 82.8878 27.08C82.6745 28.36 82.3278 29 81.8478 29H69.5278C68.9411 29 68.4745 28.76 68.1278 28.28C67.7811 27.8 67.6078 27.2533 67.6078 26.64ZM97.2706 29.4C93.5373 29.4 90.484 28.1733 88.1106 25.72C85.764 23.2667 84.5906 19.6933 84.5906 15C84.5906 10.28 85.7773 6.70667 88.1506 4.28C90.5506 1.85333 93.6306 0.639998 97.3906 0.639998C101.177 0.639998 104.231 1.84 106.551 4.24C108.871 6.61333 110.031 10.2267 110.031 15.08C110.031 19.9067 108.844 23.5067 106.471 25.88C104.097 28.2267 101.031 29.4 97.2706 29.4ZM97.3106 8.32C96.0306 8.32 94.9506 8.90667 94.0706 10.08C93.2173 11.2533 92.7906 12.9067 92.7906 15.04C92.7906 17.1467 93.204 18.7733 94.0306 19.92C94.8573 21.04 95.9373 21.6 97.2706 21.6C98.6306 21.6 99.724 21.0267 100.551 19.88C101.404 18.7333 101.831 17.0933 101.831 14.96C101.831 12.8267 101.391 11.1867 100.511 10.04C99.6573 8.89333 98.5906 8.32 97.3106 8.32ZM128.042 20.64L128.122 15.2C128.122 14.8267 128.509 14.5867 129.282 14.48C130.056 14.3467 130.696 14.28 131.202 14.28L132.762 14.4C133.776 14.56 134.282 14.84 134.282 15.24L134.122 27.76C133.589 28.1333 132.509 28.5067 130.882 28.88C129.282 29.2267 127.442 29.4 125.362 29.4C121.496 29.4 118.376 28.1467 116.002 25.64C113.629 23.1333 112.442 19.4533 112.442 14.6C112.442 10.4667 113.602 7.10666 115.922 4.52C118.242 1.93333 121.456 0.639998 125.562 0.639998C127.429 0.639998 129.109 0.826665 130.602 1.2C132.122 1.54666 133.162 2.02667 133.722 2.64C133.749 2.85333 133.762 3.25333 133.762 3.84C133.762 4.42667 133.562 5.26666 133.162 6.36C132.762 7.42667 132.309 8.22667 131.802 8.76C131.296 9.29333 130.922 9.56 130.682 9.56C130.469 9.56 130.229 9.46667 129.962 9.28C129.722 9.06667 129.229 8.85333 128.482 8.64C127.736 8.4 127.016 8.28 126.322 8.28C124.669 8.28 123.322 8.81333 122.282 9.88C121.269 10.9467 120.762 12.6 120.762 14.84C120.762 17.08 121.282 18.7867 122.322 19.96C123.389 21.1067 124.602 21.68 125.962 21.68C127.349 21.68 128.042 21.3333 128.042 20.64Z" fill="#21409A"/>
<path d="M157.726 8.24C157.726 11.0133 156.526 13.12 154.126 14.56C155.433 15.04 156.526 15.8667 157.406 17.04C158.286 18.2133 158.726 19.88 158.726 22.04C158.726 24.1733 157.926 25.8667 156.326 27.12C154.753 28.3733 152.486 29 149.526 29H140.086C139.633 29 139.259 28.8533 138.966 28.56C138.673 28.24 138.526 27.8267 138.526 27.32V1.72C138.526 1.42667 138.566 1.24 138.646 1.16C138.753 1.05333 138.953 0.999998 139.246 0.999998H148.366C154.606 0.999998 157.726 3.41333 157.726 8.24ZM146.206 7.48V12.72H146.406C148.966 12.72 150.246 11.8667 150.246 10.16C150.246 9.22667 149.993 8.54667 149.486 8.12C149.006 7.69333 148.193 7.48 147.046 7.48H146.206ZM146.206 17.44V22.64H146.926C148.073 22.64 148.913 22.4267 149.446 22C149.979 21.5733 150.246 20.8933 150.246 19.96C150.246 19.0267 149.993 18.3733 149.486 18C149.006 17.6267 148.193 17.44 147.046 17.44H146.206ZM173.716 29.4C169.983 29.4 166.929 28.1733 164.556 25.72C162.209 23.2667 161.036 19.6933 161.036 15C161.036 10.28 162.223 6.70667 164.596 4.28C166.996 1.85333 170.076 0.639998 173.836 0.639998C177.623 0.639998 180.676 1.84 182.996 4.24C185.316 6.61333 186.476 10.2267 186.476 15.08C186.476 19.9067 185.289 23.5067 182.916 25.88C180.543 28.2267 177.476 29.4 173.716 29.4ZM173.756 8.32C172.476 8.32 171.396 8.90667 170.516 10.08C169.663 11.2533 169.236 12.9067 169.236 15.04C169.236 17.1467 169.649 18.7733 170.476 19.92C171.303 21.04 172.383 21.6 173.716 21.6C175.076 21.6 176.169 21.0267 176.996 19.88C177.849 18.7333 178.276 17.0933 178.276 14.96C178.276 12.8267 177.836 11.1867 176.956 10.04C176.103 8.89333 175.036 8.32 173.756 8.32ZM204.528 2.08C204.848 1.28 206.514 0.88 209.528 0.88C210.301 0.88 211.248 0.946666 212.368 1.08C213.514 1.18667 214.088 1.29333 214.088 1.4L207.288 15.24L214.328 28.48C214.408 28.6133 213.834 28.7467 212.608 28.88C211.381 28.9867 210.341 29.04 209.488 29.04C206.101 29.04 204.248 28.5867 203.928 27.68L200.928 20.04L198.208 27.92C197.941 28.6667 196.234 29.04 193.088 29.04C192.314 29.04 191.354 28.9867 190.208 28.88C189.061 28.7733 188.541 28.6267 188.648 28.44L194.888 14.6L188.408 1.4C188.328 1.26666 188.874 1.14666 190.048 1.04C191.248 0.906664 192.261 0.839998 193.088 0.839998C196.448 0.839998 198.288 1.32 198.608 2.28L201.368 9L204.528 2.08Z" fill="#E74425"/>
</svg>
