<svg width="195" height="195" viewBox="0 0 195 195" fill="none" xmlns="http://www.w3.org/2000/svg">
<path fill-rule="evenodd" clip-rule="evenodd" d="M97.5 0C43.6522 0 0 43.6522 0 97.5C0 151.348 43.6522 195 97.5 195C151.348 195 195 151.348 195 97.5C195 94.827 194.892 92.1791 194.681 89.5604C194.892 87.7361 195 85.8807 195 84V0H111C109.119 0 107.264 0.108162 105.44 0.318604C102.821 0.107566 100.173 0 97.5 0ZM187 58.7593C177.161 36.0603 158.94 17.8389 136.241 8H187V58.7593Z" fill="#E74425"/>
<path d="M7 110C7 87.9086 24.9086 70 47 70H83C105.091 70 123 87.9086 123 110V146C123 168.091 105.091 186 83 186H7V110Z" fill="#21409A"/>
<path fill-rule="evenodd" clip-rule="evenodd" d="M88 102C90.7614 102 93 104.239 93 107V126C93 128.761 90.7614 131 88 131C85.2386 131 83 128.761 83 126V107C83 104.239 85.2386 102 88 102Z" fill="#F9F9F9"/>
<path d="M187 84C187 106.091 169.091 124 147 124H111C88.9086 124 71 106.091 71 84V48C71 25.9086 88.9086 8 111 8H187V84Z" fill="#F9F9F9"/>
<path fill-rule="evenodd" clip-rule="evenodd" d="M102 36.5C104.761 36.5 107 38.7386 107 41.5V60.5C107 63.2614 104.761 65.5 102 65.5C99.2386 65.5 97 63.2614 97 60.5V41.5C97 38.7386 99.2386 36.5 102 36.5Z" fill="#21409A"/>
<path fill-rule="evenodd" clip-rule="evenodd" d="M135 36.5C137.761 36.5 140 38.7386 140 41.5V60.5C140 63.2614 137.761 65.5 135 65.5C132.239 65.5 130 63.2614 130 60.5V41.5C130 38.7386 132.239 36.5 135 36.5Z" fill="#21409A"/>
<path fill-rule="evenodd" clip-rule="evenodd" d="M55 102C57.7614 102 60 104.239 60 107V126C60 128.761 57.7614 131 55 131C52.2386 131 50 128.761 50 126V107C50 104.239 52.2386 102 55 102Z" fill="#F9F9F9"/>
</svg>
