<svg width="50" height="50" viewBox="0 0 50 50" fill="none" xmlns="http://www.w3.org/2000/svg">
<path d="M35.7916 39.0625C32.2291 39.0625 27.9791 37.7083 27.9791 31.25V18.75C27.9791 12.2917 32.2291 10.9375 35.7916 10.9375C39.3541 10.9375 43.6041 12.2917 43.6041 18.75V31.25C43.6041 37.7083 39.3541 39.0625 35.7916 39.0625ZM35.7916 14.0625C32.4166 14.0625 31.1041 15.375 31.1041 18.75V31.25C31.1041 34.625 32.4166 35.9375 35.7916 35.9375C39.1666 35.9375 40.4791 34.625 40.4791 31.25V18.75C40.4791 15.375 39.1666 14.0625 35.7916 14.0625Z" fill="#21409A"/>
<path d="M14.2084 39.0625C10.6459 39.0625 6.39587 37.7083 6.39587 31.25V18.75C6.39587 12.2917 10.6459 10.9375 14.2084 10.9375C17.7709 10.9375 22.0209 12.2917 22.0209 18.75V31.25C22.0209 37.7083 17.7709 39.0625 14.2084 39.0625ZM14.2084 14.0625C10.8334 14.0625 9.52087 15.375 9.52087 18.75V31.25C9.52087 34.625 10.8334 35.9375 14.2084 35.9375C17.5834 35.9375 18.8959 34.625 18.8959 31.25V18.75C18.8959 15.375 17.5834 14.0625 14.2084 14.0625Z" fill="#21409A"/>
<path d="M29.5417 26.5625H20.4584C19.6042 26.5625 18.8959 25.8542 18.8959 25C18.8959 24.1458 19.6042 23.4375 20.4584 23.4375H29.5417C30.3959 23.4375 31.1042 24.1458 31.1042 25C31.1042 25.8542 30.4167 26.5625 29.5417 26.5625Z" fill="#21409A"/>
<path d="M46.875 31.7708C46.0208 31.7708 45.3125 31.0625 45.3125 30.2083V19.7917C45.3125 18.9375 46.0208 18.2292 46.875 18.2292C47.7292 18.2292 48.4375 18.9375 48.4375 19.7917V30.2083C48.4375 31.0625 47.7292 31.7708 46.875 31.7708Z" fill="#21409A"/>
<path d="M3.125 31.7708C2.27083 31.7708 1.5625 31.0625 1.5625 30.2083V19.7917C1.5625 18.9375 2.27083 18.2292 3.125 18.2292C3.97917 18.2292 4.6875 18.9375 4.6875 19.7917V30.2083C4.6875 31.0625 3.97917 31.7708 3.125 31.7708Z" fill="#21409A"/>
</svg>
