<svg width="50" height="50" viewBox="0 0 50 50" fill="none" xmlns="http://www.w3.org/2000/svg">
<path d="M25.0208 35.4167C23.25 35.4167 21.4583 34.9583 20.0625 34.0625L7.52079 25.875C5.18746 24.3542 3.79163 21.7917 3.79163 19C3.79163 16.2083 5.18746 13.6458 7.52079 12.125L20.0833 3.95834C22.875 2.14584 27.2291 2.14584 30 3.97918L42.4791 12.1667C44.7916 13.6875 46.1875 16.25 46.1875 19.0208C46.1875 21.7917 44.7916 24.3542 42.4791 25.875L30 34.0625C28.6041 34.9792 26.8125 35.4167 25.0208 35.4167ZM25.0208 5.72918C23.8333 5.72918 22.6458 6.00001 21.7916 6.58334L9.24996 14.75C7.79163 15.7083 6.93746 17.25 6.93746 19C6.93746 20.75 7.77079 22.2917 9.24996 23.25L21.7916 31.4375C23.5208 32.5625 26.5625 32.5625 28.2916 31.4375L40.7708 23.25C42.2291 22.2917 43.0625 20.75 43.0625 19C43.0625 17.25 42.2291 15.7083 40.7708 14.75L28.2916 6.56251C27.4166 6.02084 26.2291 5.72918 25.0208 5.72918Z" fill="#21409A"/>
<path d="M25 47.3958C24.0834 47.3958 23.1459 47.2708 22.3959 47.0208L15.75 44.8125C12.6042 43.7708 10.125 40.3333 10.1459 37.0208L10.1667 27.25C10.1667 26.3958 10.875 25.6875 11.7292 25.6875C12.5834 25.6875 13.2917 26.3958 13.2917 27.25L13.2709 37.0208C13.2709 38.9792 14.8959 41.2292 16.75 41.8542L23.3959 44.0625C24.2292 44.3333 25.7709 44.3333 26.6042 44.0625L33.25 41.8542C35.1042 41.2292 36.7292 38.9792 36.7292 37.0417V27.375C36.7292 26.5208 37.4375 25.8125 38.2917 25.8125C39.1459 25.8125 39.8542 26.5208 39.8542 27.375V37.0417C39.8542 40.3542 37.3959 43.7708 34.25 44.8333L27.6042 47.0417C26.8542 47.2708 25.9167 47.3958 25 47.3958Z" fill="#21409A"/>
<path d="M44.5834 32.8125C43.7292 32.8125 43.0209 32.1042 43.0209 31.25V18.75C43.0209 17.8958 43.7292 17.1875 44.5834 17.1875C45.4375 17.1875 46.1459 17.8958 46.1459 18.75V31.25C46.1459 32.1042 45.4375 32.8125 44.5834 32.8125Z" fill="#21409A"/>
</svg>
