<svg width="50" height="50" viewBox="0 0 50 50" fill="none" xmlns="http://www.w3.org/2000/svg">
<path d="M25 26.5625C18.3959 26.5625 13.0209 21.1875 13.0209 14.5833C13.0209 7.97916 18.3959 2.60416 25 2.60416C31.6042 2.60416 36.9792 7.97916 36.9792 14.5833C36.9792 21.1875 31.6042 26.5625 25 26.5625ZM25 5.72916C20.125 5.72916 16.1459 9.70833 16.1459 14.5833C16.1459 19.4583 20.125 23.4375 25 23.4375C29.875 23.4375 33.8542 19.4583 33.8542 14.5833C33.8542 9.70833 29.875 5.72916 25 5.72916Z" fill="#21409A"/>
<path d="M42.8961 47.3958C42.042 47.3958 41.3336 46.6875 41.3336 45.8333C41.3336 38.6458 34.0003 32.8125 25.0003 32.8125C16.0003 32.8125 8.66699 38.6458 8.66699 45.8333C8.66699 46.6875 7.95866 47.3958 7.10449 47.3958C6.25033 47.3958 5.54199 46.6875 5.54199 45.8333C5.54199 36.9375 14.2712 29.6875 25.0003 29.6875C35.7295 29.6875 44.4586 36.9375 44.4586 45.8333C44.4586 46.6875 43.7503 47.3958 42.8961 47.3958Z" fill="#21409A"/>
</svg>
