<svg width="50" height="50" viewBox="0 0 50 50" fill="none" xmlns="http://www.w3.org/2000/svg">
<path d="M31.25 47.3958H18.75C14.4375 47.3958 10.9375 43.8958 10.9375 39.5833V29.125C10.9375 28.7083 11.1041 28.3125 11.3958 28.0208C11.6874 27.7291 12.0833 27.5625 12.5 27.5625L20.6042 27.6041C22.3542 27.6041 24.1042 28.0208 25.6875 28.8125C26.8542 29.3958 28.1042 29.6875 29.4167 29.6875H37.5C38.3542 29.6875 39.0625 30.3958 39.0625 31.25V39.5833C39.0625 43.8958 35.5625 47.3958 31.25 47.3958ZM14.0625 30.6875V39.5833C14.0625 42.1666 16.1667 44.2708 18.75 44.2708H31.25C33.8333 44.2708 35.9375 42.1666 35.9375 39.5833V32.8125H29.4167C27.625 32.8125 25.8958 32.4166 24.2916 31.6041C23.1249 31.0208 21.875 30.7291 20.6042 30.7291L14.0625 30.6875Z" fill="#21409A"/>
<path d="M37.5 32.8125H29.4167C27.625 32.8125 25.8958 32.4167 24.2916 31.6042C23.1249 31.0208 21.875 30.7292 20.6042 30.7292L12.5 30.6875C11.6458 30.6875 10.9375 29.9792 10.9375 29.125V22.5625C10.9375 21.1875 11.6458 19.4792 12.625 18.5L17.0417 14.0833C17.125 14 17.1875 13.8542 17.1875 13.7292V10.4167C17.1875 9.5625 17.8958 8.85417 18.75 8.85417H31.25C32.1042 8.85417 32.8125 9.5625 32.8125 10.4167V13.7292C32.8125 13.8542 32.875 14 32.9583 14.0833L37.375 18.5C38.3542 19.4792 39.0625 21.1875 39.0625 22.5625V31.25C39.0625 32.1042 38.3542 32.8125 37.5 32.8125ZM14.0625 27.5625L20.6042 27.6042C22.3542 27.6042 24.1042 28.0208 25.6875 28.8125C26.8542 29.3958 28.1042 29.6875 29.4167 29.6875H35.9375V22.5625C35.9375 22.0208 35.5625 21.1042 35.1667 20.7083L30.75 16.2917C30.0834 15.625 29.6875 14.6875 29.6875 13.7292V11.9792H20.3125V13.7292C20.3125 14.6875 19.9166 15.625 19.25 16.2917L14.8333 20.7083C14.4375 21.1042 14.0625 22.0208 14.0625 22.5625V27.5625Z" fill="#21409A"/>
<path d="M37.5 34.8958C36.6458 34.8958 35.9375 34.1875 35.9375 33.3333V31.25C35.9375 30.3958 36.6458 29.6875 37.5 29.6875C38.3542 29.6875 39.0625 30.3958 39.0625 31.25V33.3333C39.0625 34.1875 38.3542 34.8958 37.5 34.8958Z" fill="#21409A"/>
<path d="M12.5 32.7708C11.6458 32.7708 10.9375 32.0625 10.9375 31.2083V29.125C10.9375 28.2708 11.6458 27.5625 12.5 27.5625C13.3542 27.5625 14.0625 28.2708 14.0625 29.125V31.2083C14.0625 32.0625 13.3542 32.7708 12.5 32.7708Z" fill="#21409A"/>
<path d="M30.2084 11.9792H19.7917C17.2084 11.9792 15.1042 9.875 15.1042 7.29167C15.1042 4.70833 17.2084 2.60417 19.7917 2.60417H30.2084C32.7917 2.60417 34.8959 4.70833 34.8959 7.29167C34.8959 9.875 32.7917 11.9792 30.2084 11.9792ZM19.7917 5.72917C18.9375 5.72917 18.2292 6.4375 18.2292 7.29167C18.2292 8.14583 18.9375 8.85417 19.7917 8.85417H30.2084C31.0625 8.85417 31.7709 8.14583 31.7709 7.29167C31.7709 6.4375 31.0625 5.72917 30.2084 5.72917H19.7917Z" fill="#21409A"/>
</svg>
